<svg width="1515" height="146" viewBox="0 0 1515 146" fill="none" xmlns="http://www.w3.org/2000/svg">
<path d="M4.88281 142.969C1.6276 142.969 0 141.178 0 137.598V8.30078C0 4.72005 1.6276 2.92969 4.88281 2.92969H17.3828C21.9401 2.92969 25.1953 4.55729 27.1484 7.8125L88.2812 110.254H88.6719C88.5417 107.65 88.4766 105.046 88.4766 102.441V8.30078C88.4766 4.72005 90.1042 2.92969 93.3594 2.92969H102.344C105.599 2.92969 107.227 4.72005 107.227 8.30078V137.598C107.227 141.178 105.599 142.969 102.344 142.969H93.75C89.1927 142.969 85.9375 141.341 83.9844 138.086L18.9453 29.3945H18.5547C18.6849 31.9987 18.75 34.6029 18.75 37.207V137.598C18.75 141.178 17.1224 142.969 13.8672 142.969H4.88281Z" fill="white"/>
<path d="M132.812 72.9492C132.812 50.1628 138.411 32.3242 149.609 19.4336C160.872 6.47786 177.083 0 198.242 0C219.401 0 235.579 6.47786 246.777 19.4336C258.04 32.3242 263.672 50.1628 263.672 72.9492C263.672 95.7357 258.04 113.607 246.777 126.562C235.579 139.453 219.401 145.898 198.242 145.898C177.083 145.898 160.872 139.453 149.609 126.562C138.411 113.607 132.812 95.7357 132.812 72.9492ZM152.832 72.9492C152.832 91.1784 156.576 105.371 164.062 115.527C171.549 125.618 182.943 130.664 198.242 130.664C213.542 130.664 224.935 125.618 232.422 115.527C239.909 105.371 243.652 91.1784 243.652 72.9492C243.652 54.7201 239.909 40.5599 232.422 30.4688C224.935 20.3125 213.542 15.2344 198.242 15.2344C182.943 15.2344 171.549 20.3125 164.062 30.4688C156.576 40.5599 152.832 54.7201 152.832 72.9492Z" fill="white"/>
<path d="M279.59 9.375C277.962 5.07812 278.841 2.92969 282.227 2.92969H292.188C295.703 2.92969 298.047 4.52474 299.219 7.71484L330.957 95.1172C332.324 98.9583 334.017 104.134 336.035 110.645C338.118 117.09 339.518 122.233 340.234 126.074H340.625C341.341 122.233 342.708 117.09 344.727 110.645C346.81 104.134 348.535 98.9583 349.902 95.1172L381.641 7.71484C382.812 4.52474 385.156 2.92969 388.672 2.92969H398.633C402.018 2.92969 402.897 5.07812 401.27 9.375L353.711 137.012C352.214 140.983 350.065 142.969 347.266 142.969H333.594C330.794 142.969 328.646 140.983 327.148 137.012L279.59 9.375Z" fill="white"/>
<path d="M558.008 142.969C554.753 142.969 553.125 141.178 553.125 137.598V8.30078C553.125 4.72005 554.753 2.92969 558.008 2.92969H566.992C570.247 2.92969 571.875 4.72005 571.875 8.30078V126.953H636.621C640.202 126.953 641.992 128.418 641.992 131.348V138.574C641.992 141.504 640.202 142.969 636.621 142.969H558.008Z" fill="white"/>
<path d="M668.945 142.969C665.69 142.969 664.062 141.178 664.062 137.598V8.30078C664.062 4.72005 665.69 2.92969 668.945 2.92969H677.93C681.185 2.92969 682.812 4.72005 682.812 8.30078V137.598C682.812 141.178 681.185 142.969 677.93 142.969H668.945Z" fill="white"/>
<path d="M720.898 142.969C717.643 142.969 716.016 141.178 716.016 137.598V8.30078C716.016 4.72005 717.643 2.92969 720.898 2.92969H733.398C737.956 2.92969 741.211 4.55729 743.164 7.8125L804.297 110.254H804.688C804.557 107.65 804.492 105.046 804.492 102.441V8.30078C804.492 4.72005 806.12 2.92969 809.375 2.92969H818.359C821.615 2.92969 823.242 4.72005 823.242 8.30078V137.598C823.242 141.178 821.615 142.969 818.359 142.969H809.766C805.208 142.969 801.953 141.341 800 138.086L734.961 29.3945H734.57C734.701 31.9987 734.766 34.6029 734.766 37.207V137.598C734.766 141.178 733.138 142.969 729.883 142.969H720.898Z" fill="white"/>
<path d="M861.328 142.969C858.073 142.969 856.445 141.178 856.445 137.598V8.30078C856.445 4.72005 858.073 2.92969 861.328 2.92969H870.312C873.568 2.92969 875.195 4.72005 875.195 8.30078V65.7227C875.195 68.3268 875.13 70.931 875 73.5352H875.391L940.625 6.73828C943.099 4.19922 945.378 2.92969 947.461 2.92969H959.277C964.681 2.92969 965.267 5.07812 961.035 9.375L911.426 59.9609L963.672 136.523C966.536 140.82 965.951 142.969 961.914 142.969H950C947.135 142.969 944.857 141.699 943.164 139.16L898.535 73.2422L875.195 96.9727V137.598C875.195 141.178 873.568 142.969 870.312 142.969H861.328Z" fill="white"/>
<path d="M1066.26 55.9689V4.33257H1082.92C1086.59 4.33257 1089.65 4.99651 1092.1 6.3244C1094.57 7.63548 1096.43 9.45922 1097.67 11.7956C1098.93 14.1152 1099.56 16.7794 1099.56 19.7882C1099.56 22.7969 1098.93 25.4527 1097.67 27.7555C1096.43 30.0583 1094.58 31.8568 1092.13 33.1511C1089.67 34.4454 1086.63 35.0925 1083 35.0925H1068.8V30.7811H1082.87C1085.56 30.7811 1087.8 30.3356 1089.58 29.4448C1091.38 28.5539 1092.71 27.2849 1093.59 25.6376C1094.48 23.9904 1094.93 22.0405 1094.93 19.7882C1094.93 17.5358 1094.48 15.5692 1093.59 13.8883C1092.7 12.1906 1091.35 10.8796 1089.55 9.95508C1087.77 9.0306 1085.52 8.56836 1082.8 8.56836H1070.97V55.9689H1066.26ZM1089.03 32.6721L1101.73 55.9689H1096.29L1083.71 32.6721H1089.03Z" fill="white"/>
<path d="M1122.52 56.7757C1118.9 56.7757 1115.78 55.9353 1113.14 54.2544C1110.5 52.5568 1108.46 50.2119 1107.01 47.22C1105.58 44.2112 1104.87 40.7486 1104.87 36.8322C1104.87 32.9326 1105.58 29.47 1107.01 26.4444C1108.46 23.4021 1110.45 21.0236 1112.99 19.3091C1115.54 17.5778 1118.49 16.7122 1121.84 16.7122C1123.94 16.7122 1125.96 17.0988 1127.91 17.872C1129.86 18.6284 1131.61 19.7966 1133.16 21.3766C1134.72 22.9398 1135.96 24.9148 1136.86 27.3017C1137.77 29.6717 1138.22 32.4788 1138.22 35.7228V37.9416H1107.97V33.9831H1133.64C1133.64 31.4954 1133.13 29.2599 1132.12 27.2765C1131.13 25.2762 1129.74 23.6962 1127.96 22.5364C1126.2 21.3766 1124.16 20.7967 1121.84 20.7967C1119.38 20.7967 1117.22 21.4522 1115.36 22.7633C1113.49 24.0744 1112.03 25.8057 1110.97 27.9572C1109.93 30.1087 1109.4 32.4619 1109.38 35.0169V37.3869C1109.38 40.4629 1109.91 43.1523 1110.97 45.4551C1112.05 47.7411 1113.57 49.5144 1115.53 50.775C1117.5 52.0357 1119.83 52.666 1122.52 52.666C1124.35 52.666 1125.95 52.3803 1127.33 51.8088C1128.73 51.2373 1129.9 50.4725 1130.84 49.5144C1131.8 48.5395 1132.52 47.4721 1133.01 46.3123L1137.27 47.699C1136.68 49.3295 1135.71 50.8339 1134.37 52.2122C1133.04 53.5905 1131.38 54.6999 1129.38 55.5403C1127.39 56.3639 1125.11 56.7757 1122.52 56.7757Z" fill="white"/>
<path d="M1174.07 17.2417L1159.93 55.9689H1155.14L1140.99 17.2417H1145.86L1157.36 50.0439H1157.71L1169.21 17.2417H1174.07Z" fill="white"/>
<path d="M1193.68 56.7757C1190.34 56.7757 1187.38 55.9269 1184.81 54.2292C1182.25 52.5315 1180.25 50.1867 1178.8 47.1948C1177.36 44.186 1176.64 40.715 1176.64 36.7818C1176.64 32.8149 1177.36 29.3271 1178.8 26.3184C1180.25 23.2928 1182.25 20.9396 1184.81 19.2587C1187.38 17.561 1190.34 16.7122 1193.68 16.7122C1197.03 16.7122 1199.98 17.561 1202.53 19.2587C1205.09 20.9564 1207.09 23.3096 1208.53 26.3184C1209.99 29.3271 1210.72 32.8149 1210.72 36.7818C1210.72 40.715 1210 44.186 1208.56 47.1948C1207.11 50.1867 1205.1 52.5315 1202.53 54.2292C1199.98 55.9269 1197.03 56.7757 1193.68 56.7757ZM1193.68 52.666C1196.37 52.666 1198.65 51.9432 1200.51 50.4977C1202.38 49.0521 1203.79 47.1275 1204.75 44.7239C1205.72 42.3203 1206.21 39.6729 1206.21 36.7818C1206.21 33.8907 1205.72 31.2349 1204.75 28.8145C1203.79 26.394 1202.38 24.4526 1200.51 22.9902C1198.65 21.5279 1196.37 20.7967 1193.68 20.7967C1191.01 20.7967 1188.73 21.5279 1186.85 22.9902C1184.98 24.4526 1183.56 26.394 1182.59 28.8145C1181.63 31.2349 1181.15 33.8907 1181.15 36.7818C1181.15 39.6729 1181.63 42.3203 1182.59 44.7239C1183.56 47.1275 1184.98 49.0521 1186.85 50.4977C1188.71 51.9432 1190.99 52.666 1193.68 52.666Z" fill="white"/>
<path d="M1222.22 4.33257V55.9689H1217.74V4.33257H1222.22Z" fill="white"/>
<path d="M1255.87 41.1689V17.2417H1260.36V55.9689H1255.87V49.5396H1255.51C1254.61 51.523 1253.17 53.1787 1251.2 54.5066C1249.24 55.8177 1246.83 56.4732 1243.99 56.4732C1241.52 56.4732 1239.33 55.9353 1237.41 54.8596C1235.5 53.767 1233.99 52.1702 1232.9 50.0691C1231.81 47.968 1231.26 45.3878 1231.26 42.3287V17.2417H1235.75V42.0513C1235.75 45.0769 1236.64 47.5141 1238.42 49.3631C1240.2 51.1953 1242.49 52.1113 1245.28 52.1113C1247.03 52.1113 1248.71 51.6911 1250.32 50.8507C1251.93 50.0102 1253.26 48.7832 1254.3 47.1696C1255.35 45.5391 1255.87 43.5389 1255.87 41.1689Z" fill="white"/>
<path d="M1284.65 17.2417V21.1497H1266.17V17.2417H1284.65ZM1271.94 7.96325H1276.46V45.8585C1276.46 47.4721 1276.73 48.7412 1277.29 49.6657C1277.84 50.5733 1278.57 51.2205 1279.46 51.6071C1280.35 51.9769 1281.3 52.1618 1282.31 52.1618C1282.89 52.1618 1283.4 52.1281 1283.82 52.0609C1284.24 51.9769 1284.61 51.8928 1284.93 51.8088L1285.89 55.8681C1285.45 56.0362 1284.91 56.1874 1284.27 56.3219C1283.63 56.4732 1282.84 56.5488 1281.9 56.5488C1280.26 56.5488 1278.67 56.1874 1277.14 55.4647C1275.62 54.7419 1274.38 53.6661 1273.41 52.2374C1272.43 50.8087 1271.94 49.0353 1271.94 46.9174V7.96325Z" fill="white"/>
<path d="M1292.05 55.9689V17.2417H1296.57V55.9689H1292.05ZM1294.35 10.5854C1293.42 10.5854 1292.63 10.2744 1291.98 9.65252C1291.32 9.01379 1290.99 8.249 1290.99 7.35813C1290.99 6.46727 1291.32 5.71088 1291.98 5.08896C1292.63 4.45023 1293.42 4.13086 1294.35 4.13086C1295.27 4.13086 1296.06 4.45023 1296.72 5.08896C1297.37 5.71088 1297.7 6.46727 1297.7 7.35813C1297.7 8.249 1297.37 9.01379 1296.72 9.65252C1296.06 10.2744 1295.27 10.5854 1294.35 10.5854Z" fill="white"/>
<path d="M1320.65 56.7757C1317.3 56.7757 1314.35 55.9269 1311.77 54.2292C1309.22 52.5315 1307.22 50.1867 1305.77 47.1948C1304.33 44.186 1303.6 40.715 1303.6 36.7818C1303.6 32.8149 1304.33 29.3271 1305.77 26.3184C1307.22 23.2928 1309.22 20.9396 1311.77 19.2587C1314.35 17.561 1317.3 16.7122 1320.65 16.7122C1323.99 16.7122 1326.94 17.561 1329.5 19.2587C1332.05 20.9564 1334.05 23.3096 1335.5 26.3184C1336.96 29.3271 1337.69 32.8149 1337.69 36.7818C1337.69 40.715 1336.97 44.186 1335.52 47.1948C1334.08 50.1867 1332.07 52.5315 1329.5 54.2292C1326.94 55.9269 1323.99 56.7757 1320.65 56.7757ZM1320.65 52.666C1323.34 52.666 1325.62 51.9432 1327.48 50.4977C1329.35 49.0521 1330.76 47.1275 1331.72 44.7239C1332.69 42.3203 1333.18 39.6729 1333.18 36.7818C1333.18 33.8907 1332.69 31.2349 1331.72 28.8145C1330.76 26.394 1329.35 24.4526 1327.48 22.9902C1325.62 21.5279 1323.34 20.7967 1320.65 20.7967C1317.98 20.7967 1315.7 21.5279 1313.82 22.9902C1311.95 24.4526 1310.53 26.394 1309.55 28.8145C1308.6 31.2349 1308.12 33.8907 1308.12 36.7818C1308.12 39.6729 1308.6 42.3203 1309.55 44.7239C1310.53 47.1275 1311.95 49.0521 1313.82 50.4977C1315.68 51.9432 1317.96 52.666 1320.65 52.666Z" fill="white"/>
<path d="M1349.19 31.7644V55.9689H1344.7V17.2417H1349.07V23.318H1349.47C1350.38 21.3346 1351.79 19.7462 1353.71 18.5527C1355.64 17.3425 1358.03 16.7374 1360.87 16.7374C1363.47 16.7374 1365.76 17.2837 1367.72 18.3762C1369.71 19.452 1371.25 21.0404 1372.34 23.1415C1373.45 25.2426 1374 27.8227 1374 30.8819V55.9689H1369.51V31.1593C1369.51 27.9824 1368.62 25.4695 1366.84 23.6206C1365.08 21.7716 1362.71 20.8471 1359.73 20.8471C1357.7 20.8471 1355.89 21.2842 1354.31 22.1582C1352.73 23.0323 1351.48 24.2929 1350.55 25.9402C1349.65 27.5706 1349.19 29.512 1349.19 31.7644Z" fill="white"/>
<path d="M1383.03 55.9689V17.2417H1387.54V55.9689H1383.03ZM1385.33 10.5854C1384.4 10.5854 1383.61 10.2744 1382.96 9.65252C1382.3 9.01379 1381.97 8.249 1381.97 7.35813C1381.97 6.46727 1382.3 5.71088 1382.96 5.08896C1383.61 4.45023 1384.4 4.13086 1385.33 4.13086C1386.25 4.13086 1387.04 4.45023 1387.7 5.08896C1388.35 5.71088 1388.68 6.46727 1388.68 7.35813C1388.68 8.249 1388.35 9.01379 1387.7 9.65252C1387.04 10.2744 1386.25 10.5854 1385.33 10.5854Z" fill="white"/>
<path d="M1395.36 55.9689V52.4139L1417.75 21.8052V21.4775H1396.32V17.2417H1423.53V20.948L1401.54 51.4054V51.7331H1424.33V55.9689H1395.36Z" fill="white"/>
<path d="M1431.43 55.9689V17.2417H1435.95V55.9689H1431.43ZM1433.73 10.5854C1432.8 10.5854 1432.01 10.2744 1431.36 9.65252C1430.7 9.01379 1430.37 8.249 1430.37 7.35813C1430.37 6.46727 1430.7 5.71088 1431.36 5.08896C1432.01 4.45023 1432.8 4.13086 1433.73 4.13086C1434.65 4.13086 1435.44 4.45023 1436.1 5.08896C1436.75 5.71088 1437.08 6.46727 1437.08 7.35813C1437.08 8.249 1436.75 9.01379 1436.1 9.65252C1435.44 10.2744 1434.65 10.5854 1433.73 10.5854Z" fill="white"/>
<path d="M1449.46 31.7644V55.9689H1444.98V17.2417H1449.34V23.318H1449.74C1450.65 21.3346 1452.06 19.7462 1453.98 18.5527C1455.91 17.3425 1458.3 16.7374 1461.14 16.7374C1463.74 16.7374 1466.03 17.2837 1467.99 18.3762C1469.98 19.452 1471.52 21.0404 1472.61 23.1415C1473.72 25.2426 1474.27 27.8227 1474.27 30.8819V55.9689H1469.78V31.1593C1469.78 27.9824 1468.89 25.4695 1467.11 23.6206C1465.35 21.7716 1462.98 20.8471 1460 20.8471C1457.97 20.8471 1456.16 21.2842 1454.58 22.1582C1453 23.0323 1451.75 24.2929 1450.82 25.9402C1449.92 27.5706 1449.46 29.512 1449.46 31.7644Z" fill="white"/>
<path d="M1498.03 71.2985C1495.39 71.2985 1493.08 70.9539 1491.09 70.2647C1489.11 69.5924 1487.44 68.6679 1486.08 67.4913C1484.71 66.3147 1483.65 64.9952 1482.9 63.5329L1486.58 61.1124C1487.13 62.0873 1487.87 63.0454 1488.8 63.9867C1489.74 64.928 1490.96 65.7096 1492.45 66.3315C1493.97 66.9534 1495.82 67.2644 1498.03 67.2644C1501.46 67.2644 1504.22 66.4071 1506.32 64.6927C1508.44 62.9782 1509.5 60.314 1509.5 56.7001V47.9764H1509.09C1508.57 49.153 1507.83 50.3296 1506.85 51.5062C1505.88 52.666 1504.6 53.6325 1503.02 54.4057C1501.46 55.1789 1499.51 55.5655 1497.19 55.5655C1494.1 55.5655 1491.35 54.8007 1488.95 53.2711C1486.56 51.7415 1484.68 49.5564 1483.3 46.7157C1481.94 43.8583 1481.26 40.4545 1481.26 36.5044C1481.26 32.588 1481.92 29.1422 1483.25 26.1671C1484.6 23.1919 1486.47 20.8723 1488.87 19.2083C1491.28 17.5442 1494.08 16.7122 1497.27 16.7122C1499.64 16.7122 1501.61 17.1324 1503.17 17.9728C1504.73 18.7965 1505.99 19.8218 1506.93 21.0488C1507.88 22.2759 1508.63 23.4693 1509.17 24.6291H1509.62V17.2417H1514.01V56.9775C1514.01 60.2552 1513.31 62.953 1511.92 65.0709C1510.52 67.1887 1508.62 68.752 1506.22 69.7605C1503.82 70.7858 1501.09 71.2985 1498.03 71.2985ZM1497.72 51.4558C1500.21 51.4558 1502.34 50.8591 1504.1 49.6657C1505.87 48.4554 1507.22 46.7241 1508.16 44.4718C1509.1 42.2194 1509.57 39.5384 1509.57 36.4288C1509.57 33.4032 1509.11 30.7222 1508.19 28.3858C1507.26 26.0326 1505.92 24.1837 1504.15 22.839C1502.4 21.4775 1500.26 20.7967 1497.72 20.7967C1495.14 20.7967 1492.95 21.4943 1491.17 22.8894C1489.39 24.2845 1488.04 26.1671 1487.13 28.5371C1486.23 30.8903 1485.77 33.5209 1485.77 36.4288C1485.77 39.3871 1486.23 42.0009 1487.16 44.2701C1488.08 46.5224 1489.44 48.2873 1491.22 49.5648C1493 50.8255 1495.17 51.4558 1497.72 51.4558Z" fill="white"/>
<path d="M1066.26 141.969V90.3326H1096.14V94.5684H1070.97V114.008H1093.79V118.243H1070.97V141.969H1066.26Z" fill="white"/>
<path d="M1116.3 142.776C1112.95 142.776 1109.99 141.927 1107.42 140.229C1104.87 138.532 1102.87 136.187 1101.42 133.195C1099.97 130.186 1099.25 126.715 1099.25 122.782C1099.25 118.815 1099.97 115.327 1101.42 112.318C1102.87 109.293 1104.87 106.94 1107.42 105.259C1109.99 103.561 1112.95 102.712 1116.3 102.712C1119.64 102.712 1122.59 103.561 1125.15 105.259C1127.7 106.956 1129.7 109.31 1131.15 112.318C1132.61 115.327 1133.34 118.815 1133.34 122.782C1133.34 126.715 1132.62 130.186 1131.17 133.195C1129.73 136.187 1127.72 138.532 1125.15 140.229C1122.59 141.927 1119.64 142.776 1116.3 142.776ZM1116.3 138.666C1118.99 138.666 1121.26 137.943 1123.13 136.498C1124.99 135.052 1126.41 133.128 1127.36 130.724C1128.34 128.32 1128.83 125.673 1128.83 122.782C1128.83 119.891 1128.34 117.235 1127.36 114.814C1126.41 112.394 1124.99 110.453 1123.13 108.99C1121.26 107.528 1118.99 106.797 1116.3 106.797C1113.62 106.797 1111.35 107.528 1109.46 108.99C1107.6 110.453 1106.18 112.394 1105.2 114.814C1104.24 117.235 1103.77 119.891 1103.77 122.782C1103.77 125.673 1104.24 128.32 1105.2 130.724C1106.18 133.128 1107.6 135.052 1109.46 136.498C1111.33 137.943 1113.61 138.666 1116.3 138.666Z" fill="white"/>
<path d="M1140.35 141.969V103.242H1144.71V109.192H1145.04C1145.81 107.242 1147.16 105.671 1149.08 104.477C1151.01 103.267 1153.19 102.662 1155.63 102.662C1156 102.662 1156.41 102.67 1156.87 102.687C1157.32 102.704 1157.7 102.721 1158 102.737V107.301C1157.8 107.267 1157.45 107.217 1156.94 107.15C1156.44 107.082 1155.89 107.049 1155.3 107.049C1153.29 107.049 1151.49 107.477 1149.91 108.335C1148.34 109.175 1147.11 110.343 1146.2 111.839C1145.29 113.335 1144.84 115.041 1144.84 116.958V141.969H1140.35Z" fill="white"/>
<path d="M1172.04 141.969L1160.34 103.242H1165.08L1174.26 135.187H1174.59L1183.74 103.242H1188.51L1197.58 135.111H1197.94L1207.11 103.242H1211.85L1200.15 141.969H1195.51L1186.34 110.226H1185.86L1176.68 141.969H1172.04Z" fill="white"/>
<path d="M1228.55 142.851C1226.22 142.851 1224.08 142.398 1222.15 141.49C1220.22 140.565 1218.68 139.238 1217.53 137.506C1216.39 135.758 1215.82 133.64 1215.82 131.153C1215.82 129.236 1216.18 127.623 1216.9 126.312C1217.63 125.001 1218.65 123.925 1219.98 123.084C1221.31 122.244 1222.88 121.58 1224.7 121.093C1226.51 120.605 1228.51 120.227 1230.7 119.958C1232.86 119.689 1234.7 119.454 1236.19 119.252C1237.71 119.05 1238.86 118.731 1239.65 118.294C1240.44 117.857 1240.83 117.151 1240.83 116.176V115.268C1240.83 112.629 1240.04 110.553 1238.46 109.041C1236.9 107.511 1234.65 106.746 1231.7 106.746C1228.91 106.746 1226.64 107.36 1224.87 108.587C1223.12 109.814 1221.9 111.259 1221.19 112.923L1216.93 111.385C1217.8 109.268 1219.01 107.578 1220.56 106.318C1222.11 105.04 1223.84 104.124 1225.75 103.569C1227.67 102.998 1229.61 102.712 1231.58 102.712C1233.06 102.712 1234.6 102.905 1236.19 103.292C1237.81 103.679 1239.3 104.351 1240.68 105.309C1242.06 106.25 1243.18 107.57 1244.03 109.268C1244.89 110.948 1245.32 113.083 1245.32 115.672V141.969H1240.83V135.842H1240.55C1240.02 136.985 1239.22 138.095 1238.16 139.17C1237.1 140.246 1235.77 141.128 1234.18 141.818C1232.58 142.507 1230.7 142.851 1228.55 142.851ZM1229.16 138.742C1231.54 138.742 1233.61 138.212 1235.36 137.153C1237.11 136.094 1238.45 134.691 1239.39 132.943C1240.35 131.178 1240.83 129.236 1240.83 127.118V121.521C1240.5 121.84 1239.93 122.126 1239.14 122.378C1238.37 122.631 1237.47 122.857 1236.44 123.059C1235.44 123.244 1234.43 123.404 1233.42 123.538C1232.41 123.673 1231.5 123.79 1230.7 123.891C1228.51 124.16 1226.65 124.58 1225.1 125.152C1223.55 125.723 1222.37 126.513 1221.54 127.522C1220.72 128.514 1220.31 129.791 1220.31 131.354C1220.31 133.707 1221.15 135.531 1222.83 136.825C1224.51 138.103 1226.62 138.742 1229.16 138.742Z" fill="white"/>
<path d="M1254.42 141.969V103.242H1258.78V109.192H1259.11C1259.88 107.242 1261.23 105.671 1263.14 104.477C1265.07 103.267 1267.26 102.662 1269.7 102.662C1270.07 102.662 1270.48 102.67 1270.93 102.687C1271.39 102.704 1271.76 102.721 1272.07 102.737V107.301C1271.87 107.267 1271.51 107.217 1271.01 107.15C1270.5 107.082 1269.96 107.049 1269.37 107.049C1267.35 107.049 1265.55 107.477 1263.97 108.335C1262.41 109.175 1261.18 110.343 1260.27 111.839C1259.36 113.335 1258.91 115.041 1258.91 116.958V141.969H1254.42Z" fill="white"/>
<path d="M1289.65 142.776C1286.47 142.776 1283.69 141.935 1281.3 140.254C1278.92 138.574 1277.05 136.229 1275.71 133.22C1274.38 130.211 1273.71 126.707 1273.71 122.706C1273.71 118.722 1274.38 115.235 1275.71 112.243C1277.05 109.234 1278.93 106.898 1281.33 105.233C1283.73 103.553 1286.53 102.712 1289.73 102.712C1292.08 102.712 1294.04 103.132 1295.6 103.973C1297.16 104.796 1298.42 105.822 1299.36 107.049C1300.3 108.276 1301.03 109.469 1301.55 110.629H1301.95V90.3326H1306.47V141.969H1302.08V134.783H1301.55C1301.03 135.96 1300.29 137.17 1299.33 138.414C1298.37 139.641 1297.1 140.675 1295.52 141.515C1293.96 142.356 1292 142.776 1289.65 142.776ZM1290.18 138.666C1292.68 138.666 1294.82 137.985 1296.58 136.624C1298.35 135.245 1299.69 133.354 1300.62 130.951C1301.56 128.53 1302.03 125.757 1302.03 122.631C1302.03 119.538 1301.57 116.806 1300.64 114.436C1299.72 112.049 1298.37 110.184 1296.61 108.839C1294.84 107.477 1292.7 106.797 1290.18 106.797C1287.59 106.797 1285.41 107.503 1283.62 108.915C1281.86 110.31 1280.51 112.201 1279.59 114.588C1278.68 116.974 1278.23 119.655 1278.23 122.631C1278.23 125.639 1278.69 128.354 1279.61 130.774C1280.54 133.195 1281.88 135.119 1283.65 136.548C1285.43 137.96 1287.61 138.666 1290.18 138.666Z" fill="white"/>
<path d="M469.113 90.6795L462.866 104.99C462.707 105.355 462.347 105.59 461.949 105.59H436.103C435.688 105.59 435.317 105.846 435.169 106.234L421.417 142.325C421.27 142.713 420.898 142.969 420.483 142.969H403.816C403.125 142.969 402.642 142.284 402.874 141.633L452.009 3.63332C452.151 3.23486 452.528 2.96875 452.951 2.96875H474.201C474.623 2.96875 474.999 3.233 475.142 3.62946L524.915 141.629C525.15 142.281 524.668 142.969 523.975 142.969H506.687C506.262 142.969 505.883 142.7 505.743 142.299L487.204 89.2794L464.861 22.1694C464.556 21.2533 463.258 21.2587 462.96 22.1774L441.664 87.9715C441.455 88.6174 441.936 89.2794 442.615 89.2794H468.197C468.918 89.2794 469.402 90.0189 469.113 90.6795Z" fill="white"/>
<path d="M1031.9 2.96875L1031.9 141.969" stroke="white" stroke-width="7"/>
</svg>
